# xmcd
#
# Track frame offsets:
#	150
#	13186
#	28617
#	43577
#	59750
#	76146
#	89997
#	105991
#	121842
#	136072
#	149908
#	163224
#
# Disc length: 2355 seconds
#
# Revision: 0
# Processed by: cddbd v1.5.1PL2 Copyright (c) Steve Scherf et al.
# Submitted via: dBpowerAMP V4.0
#
DISCID=a909310c
DTITLE=Rodolfo e Rodrigo - Meu Anjo
DYEAR=2006
DGENRE=Sertanejo
TTITLE0=Meu Anjo
TTITLE1=Alguém Pra Me Fazer Feliz
TTITLE2=Mulher Breteira
TTITLE3=Quero
TTITLE4=Eu Te Amo
TTITLE5=Por Você
TTITLE6=Amor Safado
TTITLE7=Pedindo Arrego
TTITLE8=me Deixe Viver
TTITLE9=Larga Eu Pro Cê Vê
TTITLE10=Paixâo Fatal
TTITLE11=Magia e Mistério
EXTD=Rodolfo e Rodrigo - Sucesso em Goiás
EXTT0=
EXTT1=
EXTT2=
EXTT3=
EXTT4=
EXTT5=
EXTT6=
EXTT7=
EXTT8=
EXTT9=
EXTT10=
EXTT11=
PLAYORDER=
